<svg xmlns="http://www.w3.org/2000/svg" width="431" height="509" viewBox="0 0 431 509">
    <defs>
        <clipPath id="m1fvt2gq2a">
            <path data-name="패스 39360" d="M5 5c41.665 205.236 203.314 366.885 408.552 408.55V5z" transform="translate(-5 -5)" style="fill:none"/>
        </clipPath>
        <clipPath id="tom1t1lh6b">
            <path data-name="사각형 9073" style="fill:none" d="M0 0h431v431H0z"/>
        </clipPath>
    </defs>
    <g data-name="그룹 26728">
        <text data-name="세번째 ○ : 열정(Passion)" transform="translate(216 500)" style="font-size:40px;font-family:Pretendard-Medium,Pretendard;font-weight:500;letter-spacing:-.02em;fill:#ccc"><tspan x="-201.863" y="0">세번째 ○ : 열정(Passion)</tspan></text>
        <g data-name="그룹 24716">
            <g data-name="그룹 24713">
                <g data-name="그룹 24712" style="clip-path:url(#m1fvt2gq2a)" transform="translate(11.224 11.224)">
                    <path data-name="선 39" transform="translate(37.776 201.776)" style="fill:#fff" d="m0 0 360 72"/>
                    <path data-name="패스 39357" d="M387.4 184.283a11.316 11.316 0 0 1-2.213-.22L26.024 112.23a11.224 11.224 0 0 1 4.4-22.012l359.165 71.833a11.225 11.225 0 0 1-2.189 22.232" transform="translate(9.937 100.806)" style="fill:#ccc"/>
                    <path data-name="선 40" transform="translate(37.776 266.776)" style="fill:#fff" d="m0 0 360 72"/>
                    <path data-name="패스 39358" d="M387.4 213.283a11.314 11.314 0 0 1-2.213-.22L26.024 141.23a11.224 11.224 0 0 1 4.4-22.012l359.167 71.832a11.225 11.225 0 0 1-2.189 22.232" transform="translate(9.937 136.905)" style="fill:#ccc"/>
                    <path data-name="선 41" transform="translate(37.776 334.776)" style="fill:#fff" d="m0 0 360 72"/>
                    <path data-name="패스 39359" d="M387.4 243.282a11.316 11.316 0 0 1-2.213-.22L26.024 171.229a11.224 11.224 0 0 1 4.4-22.012l359.165 71.833a11.225 11.225 0 0 1-2.189 22.232" transform="translate(9.937 174.25)" style="fill:#333"/>
                </g>
            </g>
            <g data-name="그룹 24715">
                <g data-name="그룹 24714" style="clip-path:url(#tom1t1lh6b)">
                    <path data-name="패스 39361" d="M419.788 431a11.283 11.283 0 0 1-2.245-.227 532.578 532.578 0 0 1-271.32-146A532.594 532.594 0 0 1 .227 13.457a11.224 11.224 0 0 1 22-4.467 510.936 510.936 0 0 0 399.781 399.784 11.225 11.225 0 0 1-2.22 22.226" style="fill:#ccc"/>
                    <path data-name="패스 39362" d="M165.214 73.912a11.226 11.226 0 0 1-9.451-17.262l24.693-38.7a11.224 11.224 0 0 1 18.924 12.07l-24.693 38.7a11.213 11.213 0 0 1-9.473 5.19" transform="translate(191.697 15.881)" style="fill:#ccc"/>
                    <path data-name="패스 39363" d="M104.929 73.913a11.213 11.213 0 0 1-9.473-5.19l-24.693-38.7a11.224 11.224 0 0 1 18.924-12.077l24.693 38.7a11.226 11.226 0 0 1-9.451 17.262" transform="translate(85.891 15.881)" style="fill:#ccc"/>
                    <path data-name="패스 39364" d="M128.725 68.343A11.224 11.224 0 0 1 117.5 57.119v-44.9a11.224 11.224 0 1 1 22.448 0v44.9a11.224 11.224 0 0 1-11.224 11.224" transform="translate(146.263 1.245)" style="fill:#ccc"/>
                    <path data-name="패스 39365" d="M286.027 231.607a11.228 11.228 0 0 1-9.812-16.659 98.779 98.779 0 1 0-185.266-47.73 100.251 100.251 0 0 0 .566 10.636 11.224 11.224 0 1 1-22.32 2.393 122.676 122.676 0 0 1-.694-13.029 121.218 121.218 0 1 1 227.358 58.6 11.226 11.226 0 0 1-9.832 5.794" transform="translate(85.269 57.26)" style="fill:#ccc"/>
                </g>
            </g>
        </g>
    </g>
</svg>
